<?xml version="1.0" encoding="UTF-8"?>
<svg width="97px" height="256px" viewBox="0 0 97 256" version="1.1" xmlns="http://www.w3.org/2000/svg" xmlns:xlink="http://www.w3.org/1999/xlink">
    <title>Fill 15</title>
    <g id="Page-1" stroke="none" stroke-width="1" fill="none" fill-rule="evenodd">
        <g id="Bicicleta-Icon-Vector-03" transform="translate(-832.000000, -599.000000)" fill="#1C536B">
            <path d="M846.741,840.463 L914.264,840.463 L914.264,767.437 L846.741,767.437 L846.741,840.463 Z M859.804,635.772 C864.117,632.806 868.593,631.522 870.076,631.154 L890.937,631.154 C892.383,631.509 896.631,632.722 900.863,635.543 C905.452,638.602 908.42,642.419 909.83,647.106 L851.18,647.106 C852.554,642.539 855.408,638.795 859.804,635.772 Z M874.679,617.232 L886.326,617.232 L886.326,613.267 L874.679,613.267 L874.679,617.232 Z M907.3,705.675 C903.651,716.487 900.082,734.475 906.921,753.515 L854.085,753.515 C860.925,734.475 857.355,716.487 853.706,705.675 L907.3,705.675 Z M846.741,691.753 L914.264,691.753 L914.264,661.028 L846.741,661.028 L846.741,691.753 Z M924.219,647.79 C921.706,632.154 909.993,623.438 900.248,619.523 L900.248,606.306 C900.248,602.462 897.131,599.345 893.287,599.345 L867.718,599.345 C863.874,599.345 860.757,602.462 860.757,606.306 L860.757,619.523 C851.012,623.438 839.299,632.154 836.786,647.79 C834.443,648.91 832.819,651.296 832.819,654.067 L832.819,698.714 C832.819,702.225 835.421,705.121 838.8,705.598 C842.112,713.476 848.521,733.491 838.995,753.562 C835.521,753.953 832.819,756.898 832.819,760.476 L832.819,847.424 C832.819,851.269 835.936,854.385 839.78,854.385 L921.225,854.385 C925.069,854.385 928.186,851.269 928.186,847.424 L928.186,760.476 C928.186,756.899 925.486,753.954 922.013,753.563 C912.567,733.609 918.94,713.509 922.229,705.595 C925.596,705.107 928.186,702.217 928.186,698.714 L928.186,654.067 C928.186,651.296 926.563,648.91 924.219,647.79 L924.219,647.79 Z" id="Fill-15"></path>
        </g>
    </g>
</svg>