<?xml version="1.0" encoding="UTF-8"?>
<svg width="275px" height="134px" viewBox="0 0 275 134" version="1.1" xmlns="http://www.w3.org/2000/svg" xmlns:xlink="http://www.w3.org/1999/xlink">
    <title>Fill 2</title>
    <g id="Page-1" stroke="none" stroke-width="1" fill="none" fill-rule="evenodd">
        <g id="Bicicleta-Icon-Vector-03" transform="translate(-192.000000, -161.000000)" fill="#1C536B">
            <path d="M232.5,189.734 C225.659,189.734 220.114,195.279 220.114,202.119 C220.114,208.96 225.659,214.505 232.5,214.505 C239.34,214.505 244.885,208.96 244.885,202.119 C244.885,195.279 239.34,189.734 232.5,189.734" id="Fill-1"></path>
            <path d="M450.038,268.348 C445.112,276.8 435.967,282.051 426.17,282.05 C421.319,282.05 416.526,280.75 412.306,278.291 C399.163,270.629 394.703,253.703 402.365,240.559 C407.291,232.107 416.437,226.857 426.233,226.857 C431.083,226.857 435.877,228.157 440.096,230.616 C446.463,234.328 451.004,240.297 452.882,247.423 C454.76,254.55 453.75,261.981 450.038,268.348 Z M376.367,236.767 C372.449,234.483 368.344,232.705 364.118,231.424 C364.152,231.392 364.186,231.36 364.219,231.328 C364.706,230.866 365.179,230.39 365.643,229.904 C365.864,229.671 366.091,229.442 366.307,229.204 C366.633,228.845 366.948,228.474 367.261,228.102 C367.424,227.91 367.585,227.718 367.744,227.522 C368.059,227.135 368.369,226.744 368.67,226.344 C368.796,226.177 368.916,226.004 369.04,225.835 C369.551,225.133 370.041,224.413 370.508,223.674 C370.678,223.407 370.851,223.141 371.015,222.869 C371.101,222.724 371.198,222.587 371.284,222.441 C371.45,222.155 371.599,221.865 371.758,221.578 C371.834,221.441 371.91,221.304 371.984,221.166 C372.207,220.75 372.42,220.332 372.627,219.912 C372.723,219.718 372.818,219.523 372.911,219.327 C373.093,218.941 373.269,218.552 373.438,218.162 C373.539,217.93 373.638,217.696 373.735,217.461 C373.887,217.094 374.032,216.725 374.172,216.355 C374.271,216.093 374.367,215.83 374.461,215.565 C374.585,215.213 374.706,214.861 374.82,214.508 C374.913,214.219 375.002,213.928 375.089,213.636 C375.189,213.301 375.286,212.965 375.376,212.628 C375.451,212.353 375.523,212.078 375.591,211.801 C378.783,214.838 382.345,217.527 386.255,219.806 C390.177,222.093 394.291,223.853 398.522,225.135 C395.743,227.75 393.305,230.759 391.338,234.132 C389.352,237.541 387.933,241.124 387.033,244.774 C383.84,241.736 380.278,239.046 376.367,236.767 Z M271.213,213.482 C272.274,209.875 272.853,206.065 272.853,202.12 C272.853,198.174 272.274,194.363 271.213,190.757 C275.501,191.774 279.934,192.303 284.46,192.303 C288.979,192.303 293.405,191.775 297.686,190.762 C296.063,196.263 295.648,202.045 296.473,207.782 C296.5,207.973 296.521,208.166 296.551,208.356 C296.594,208.624 296.647,208.891 296.695,209.159 C296.77,209.582 296.843,210.005 296.931,210.423 C296.942,210.475 296.956,210.527 296.967,210.58 C297.177,211.561 297.427,212.528 297.707,213.482 C293.419,212.465 288.986,211.935 284.46,211.935 C279.934,211.935 275.502,212.465 271.213,213.482 Z M204.909,202.12 C204.909,186.905 217.286,174.528 232.5,174.528 C247.713,174.528 260.091,186.905 260.091,202.12 C260.091,217.333 247.713,229.71 232.5,229.71 C217.286,229.71 204.909,217.333 204.909,202.12 Z M339.786,229.498 C339.396,229.547 339.004,229.584 338.61,229.616 C338.406,229.632 338.202,229.651 337.997,229.662 C337.663,229.682 337.327,229.689 336.991,229.696 C336.801,229.7 336.612,229.71 336.421,229.71 C336.14,229.71 335.861,229.698 335.582,229.689 C335.353,229.682 335.123,229.679 334.894,229.666 C334.595,229.65 334.298,229.624 334.001,229.598 C333.751,229.576 333.502,229.552 333.253,229.523 C332.982,229.492 332.711,229.459 332.442,229.42 C332.112,229.371 331.782,229.314 331.453,229.254 C331.265,229.219 331.076,229.191 330.89,229.153 C330.381,229.048 329.875,228.928 329.373,228.795 C329.21,228.751 329.049,228.702 328.887,228.656 C328.513,228.55 328.141,228.436 327.772,228.314 C327.602,228.258 327.432,228.201 327.264,228.142 C326.859,227.999 326.457,227.845 326.058,227.684 C325.948,227.639 325.835,227.599 325.726,227.552 C325.255,227.354 324.791,227.139 324.331,226.914 C324.126,226.814 323.924,226.707 323.722,226.602 C323.464,226.468 323.209,226.33 322.955,226.188 C322.741,226.068 322.528,225.947 322.317,225.821 C321.733,225.474 321.17,225.102 320.618,224.717 C320.394,224.56 320.169,224.405 319.95,224.241 C319.499,223.907 319.067,223.553 318.64,223.194 C318.198,222.821 317.77,222.433 317.353,222.033 C317.165,221.853 316.978,221.673 316.795,221.489 C316.3,220.987 315.825,220.465 315.37,219.928 C315.261,219.799 315.15,219.671 315.043,219.539 C314.624,219.026 314.226,218.495 313.844,217.952 C313.691,217.732 313.538,217.513 313.39,217.289 C313.115,216.872 312.852,216.446 312.599,216.014 C312.352,215.591 312.114,215.162 311.89,214.725 C311.771,214.495 311.65,214.268 311.538,214.035 C311.213,213.352 310.913,212.655 310.643,211.942 C310.611,211.858 310.576,211.776 310.544,211.693 C310.239,210.863 309.968,210.016 309.74,209.15 C309.635,208.749 309.541,208.346 309.454,207.943 C309.443,207.893 309.429,207.842 309.418,207.791 C309.361,207.518 309.314,207.244 309.265,206.97 C309.23,206.772 309.19,206.576 309.159,206.377 C309.14,206.259 309.128,206.141 309.111,206.024 C308.929,204.747 308.829,203.445 308.829,202.12 C308.829,199.277 309.262,196.533 310.064,193.951 C310.072,193.928 310.079,193.905 310.086,193.882 C310.208,193.493 310.339,193.108 310.478,192.726 C310.503,192.657 310.53,192.587 310.556,192.517 C310.682,192.179 310.814,191.843 310.953,191.511 C310.995,191.411 311.039,191.311 311.082,191.211 C311.214,190.905 311.351,190.601 311.494,190.301 C311.547,190.19 311.602,190.08 311.656,189.97 C311.803,189.672 311.953,189.377 312.11,189.086 C312.158,188.995 312.208,188.906 312.258,188.816 C312.42,188.523 312.587,188.233 312.759,187.946 C312.885,187.735 313.019,187.53 313.151,187.323 C313.448,186.858 313.757,186.402 314.08,185.956 C314.18,185.818 314.278,185.679 314.38,185.543 C314.578,185.281 314.782,185.023 314.989,184.768 C315.109,184.62 315.231,184.474 315.354,184.329 C315.559,184.087 315.765,183.845 315.978,183.609 C316.191,183.375 316.411,183.148 316.632,182.921 C316.878,182.667 317.13,182.419 317.385,182.175 C317.628,181.944 317.872,181.714 318.123,181.493 C318.263,181.368 318.405,181.246 318.548,181.125 C318.896,180.829 319.249,180.54 319.611,180.262 C319.659,180.225 319.705,180.187 319.753,180.15 C323.5,177.315 327.946,175.449 332.663,174.791 C332.788,174.774 332.913,174.758 333.039,174.743 C333.44,174.692 333.845,174.654 334.25,174.622 C334.444,174.606 334.637,174.588 334.832,174.577 C335.192,174.556 335.554,174.548 335.917,174.541 C336.085,174.538 336.252,174.528 336.421,174.528 C336.677,174.528 336.93,174.541 337.184,174.548 C337.444,174.555 337.703,174.559 337.962,174.574 C338.247,174.589 338.53,174.614 338.813,174.638 C339.08,174.662 339.347,174.688 339.613,174.719 C339.87,174.748 340.126,174.78 340.381,174.817 C340.739,174.869 341.095,174.93 341.45,174.996 C341.613,175.026 341.777,175.05 341.938,175.083 C342.457,175.189 342.971,175.312 343.483,175.448 C343.631,175.487 343.776,175.532 343.923,175.573 C344.314,175.684 344.703,175.803 345.09,175.931 C345.248,175.984 345.405,176.036 345.562,176.091 C345.986,176.24 346.406,176.401 346.822,176.57 C346.917,176.609 347.013,176.643 347.106,176.683 C347.583,176.883 348.052,177.101 348.518,177.328 C348.715,177.425 348.909,177.527 349.104,177.628 C349.37,177.767 349.635,177.91 349.897,178.057 C350.16,178.204 350.422,178.351 350.679,178.506 C350.713,178.527 350.747,178.549 350.781,178.57 C354.798,181.028 358.134,184.487 360.455,188.594 C362.673,192.552 363.894,197.007 363.996,201.539 C363.998,201.596 364,201.653 364,201.71 C364.006,202.057 364.003168,202.404 363.995,202.751 C363.992,202.882 363.99,203.013 363.985,203.143 C363.975,203.442 363.957,203.741 363.937,204.04 C363.925,204.21 363.913,204.379 363.898,204.548 C363.875,204.819 363.846,205.089 363.814,205.36 C363.792,205.552 363.768,205.743 363.741,205.933 C363.707,206.183 363.668,206.433 363.627,206.682 C363.592,206.89 363.555,207.097 363.516,207.303 C363.471,207.536 363.424,207.768 363.374,208.001 C363.326,208.22 363.275,208.438 363.222,208.656 C363.169,208.873 363.114,209.09 363.056,209.306 C362.994,209.535 362.929,209.763 362.861,209.989 C362.801,210.191 362.739,210.393 362.674,210.595 C362.596,210.833 362.516,211.071 362.433,211.306 C362.367,211.491 362.3,211.675 362.231,211.859 C362.136,212.108 362.039,212.356 361.937,212.602 C361.869,212.767 361.799,212.932 361.727,213.097 C361.613,213.359 361.496,213.619 361.374,213.876 C361.308,214.017 361.24,214.156 361.171,214.296 C361.032,214.577 360.89,214.857 360.742,215.133 C360.687,215.235 360.63,215.336 360.574,215.438 C360.413,215.728 360.249,216.015 360.079,216.299 C359.959,216.498 359.833,216.691 359.709,216.886 C359.4,217.372 359.078,217.848 358.74,218.312 C358.649,218.437 358.56,218.565 358.467,218.689 C358.264,218.957 358.056,219.22 357.844,219.48 C357.73,219.621 357.614,219.76 357.497,219.898 C357.288,220.145 357.078,220.392 356.86,220.632 C356.675,220.837 356.482,221.034 356.291,221.232 C356.014,221.519 355.732,221.8 355.443,222.076 C355.206,222.301 354.968,222.525 354.724,222.741 C354.58,222.869 354.434,222.994 354.288,223.119 C353.946,223.409 353.599,223.693 353.244,223.966 C353.19,224.007 353.138,224.051 353.084,224.092 C349.341,226.923 344.9,228.788 340.188,229.447 C340.054,229.465 339.92,229.481 339.786,229.498 Z M446.522,219.591 C440.354,215.996 433.338,214.095 426.233,214.095 C424.474,214.095 422.73,214.214 421.009,214.44 L420.999,214.365 C411.115,215.75 401.324,213.819 392.681,208.781 C384.039,203.743 377.532,196.174 373.867,186.892 L373.792,186.922 C373.108,185.246 372.313,183.628 371.419,182.072 C368.154,176.35 363.449,171.36 357.462,167.702 C357.392,167.659 357.322,167.615 357.252,167.572 C357.08,167.469 356.916,167.358 356.742,167.257 C356.549,167.145 356.349,167.049 356.155,166.94 C355.753,166.714 355.347,166.496 354.938,166.284 C354.668,166.145 354.401,166.002 354.13,165.87 C353.441,165.532 352.742,165.21 352.032,164.911 C351.925,164.866 351.817,164.827 351.71,164.783 C351.064,164.518 350.411,164.271 349.749,164.039 C349.552,163.969 349.354,163.903 349.155,163.837 C348.54,163.632 347.918,163.442 347.291,163.266 C347.125,163.219 346.961,163.169 346.795,163.125 C346.018,162.918 345.234,162.73 344.44,162.569 C344.3,162.541 344.158,162.521 344.018,162.493 C343.394,162.374 342.765,162.268 342.132,162.178 C341.821,162.133 341.51,162.096 341.198,162.059 C340.73,162.003 340.26,161.957 339.788,161.918 C339.437,161.888 339.087,161.857 338.736,161.837 C338.225,161.808 337.709,161.796 337.193,161.786 C336.946,161.781 336.7,161.761 336.453,161.761 C336.273,161.761 336.096,161.777 335.917,161.779 C335.292,161.787 334.671,161.805 334.055,161.841 C333.798,161.857 333.543,161.88 333.288,161.9 C332.666,161.948 332.048,162.01 331.434,162.086 C331.268,162.107 331.101,162.126 330.935,162.149 C323.908,163.109 317.451,165.879 312.054,169.981 C311.967,170.046 311.883,170.116 311.797,170.183 L311.737,170.106 C303.896,176.279 294.464,179.542 284.46,179.542 C274.456,179.542 265.024,176.279 257.184,170.106 L257.124,170.183 C250.304,164.913 241.765,161.766 232.5,161.766 C210.249,161.766 192.147,179.868 192.147,202.12 C192.147,224.37 210.249,242.472 232.5,242.472 C241.764,242.472 250.304,239.326 257.123,234.056 L257.184,234.133 C265.024,227.96 274.456,224.697 284.46,224.697 C294.464,224.697 303.896,227.96 311.737,234.133 L311.784,234.072 C312.947,234.965 314.163,235.799 315.432,236.571 C315.476,236.597 315.519,236.625 315.563,236.651 C315.743,236.76 315.917,236.876 316.1,236.982 C316.296,237.096 316.5,237.194 316.698,237.305 C317.09,237.525 317.487,237.738 317.887,237.946 C318.164,238.09 318.44,238.237 318.721,238.374 C319.404,238.709 320.096,239.028 320.801,239.325 C320.922,239.376 321.046,239.42 321.168,239.47 C321.797,239.727 322.433,239.968 323.077,240.195 C323.286,240.268 323.496,240.338 323.707,240.408 C324.304,240.607 324.909,240.792 325.519,240.964 C325.699,241.014 325.879,241.069 326.061,241.118 C326.828,241.322 327.604,241.508 328.389,241.667 C328.553,241.701 328.719,241.724 328.884,241.756 C329.482,241.869 330.084,241.972 330.692,242.058 C331.017,242.105 331.342,242.144 331.668,242.183 C332.119,242.236 332.571,242.281 333.025,242.319 C333.39,242.35 333.754,242.381 334.12,242.402 C334.602,242.429 335.087,242.441 335.573,242.451 C335.845,242.456 336.115,242.478 336.388,242.478 C336.59,242.478 336.79,242.461 336.991,242.458 C337.589,242.449 338.184,242.432 338.775,242.398 C339.042,242.382 339.307,242.359 339.573,242.337 C340.183,242.29 340.789,242.229 341.391,242.155 C341.465,242.146 341.54,242.142 341.614,242.133 L341.625,242.208 C351.508,240.823 361.298,242.754 369.941,247.792 C378.583,252.83 385.09,260.399 388.755,269.681 L388.845,269.645 C392.083,277.632 397.876,284.65 405.88,289.316 C412.047,292.911 419.063,294.812 426.17,294.812 C426.171,294.812 426.171,294.812 426.172,294.812 C440.49,294.812 453.861,287.134 461.064,274.775 C466.492,265.463 467.969,254.595 465.222,244.172 C462.476,233.748 455.834,225.019 446.522,219.591 L446.522,219.591 Z" id="Fill-2"></path>
            <path d="M432.439,243.753 C426.529,240.308 418.946,242.306 415.501,248.216 C412.056,254.126 414.055,261.709 419.964,265.154 C425.874,268.599 433.457,266.6 436.902,260.691 C440.347,254.781 438.349,247.198 432.439,243.753" id="Fill-3"></path>
            <path d="M347.751,207.111 C347.848,206.89 347.933,206.663 348.018,206.435 C348.079,206.272 348.143,206.11 348.197,205.946 C348.26,205.75 348.312,205.55 348.365,205.35 C348.42,205.148 348.478,204.946 348.522,204.742 C348.558,204.575 348.583,204.405 348.613,204.235 C348.654,203.994 348.696,203.754 348.723,203.512 C348.74,203.362 348.747,203.21 348.759,203.058 C348.779,202.796 348.795,202.535 348.798,202.273 C348.799,202.222 348.806,202.171 348.806,202.119 C348.806,202.009 348.792,201.902 348.79,201.792 C348.783,201.549 348.774,201.307 348.753,201.066 C348.737,200.872 348.712,200.682 348.687,200.491 C348.66,200.292 348.632,200.094 348.596,199.897 C348.556,199.678 348.509,199.462 348.458,199.247 C348.418,199.08 348.376,198.914 348.33,198.748 C348.266,198.522 348.195,198.3 348.118,198.079 C348.064,197.922 348.008,197.767 347.948,197.612 C347.865,197.4 347.776,197.191 347.681,196.984 C347.607,196.819 347.528,196.657 347.446,196.495 C347.352,196.312 347.255,196.132 347.152,195.954 C347.05,195.775 346.943,195.599 346.831,195.425 C346.733,195.273 346.632,195.124 346.528,194.977 C346.397,194.791 346.261,194.609 346.119,194.43 C346.017,194.301 345.911,194.174 345.803,194.049 C345.65,193.871 345.493,193.697 345.329,193.527 C345.211,193.404 345.089,193.286 344.965,193.168 C344.804,193.014 344.641,192.864 344.471,192.718 C344.319,192.589 344.164,192.465 344.006,192.343 C343.853,192.225 343.7,192.107 343.541,191.995 C343.343,191.856 343.139,191.726 342.933,191.599 C342.84,191.541 342.754,191.475 342.658,191.419 C342.613,191.393 342.565,191.373 342.52,191.348 C342.293,191.219 342.06,191.102 341.824,190.988 C341.687,190.921 341.551,190.851 341.412,190.789 C341.191,190.691 340.963,190.607 340.735,190.522 C340.573,190.461 340.411,190.397 340.247,190.343 C340.052,190.28 339.851,190.228 339.651,190.174 C339.448,190.119 339.247,190.062 339.043,190.018 C338.876,189.982 338.706,189.957 338.536,189.927 C338.295,189.886 338.055,189.844 337.814,189.817 C337.663,189.8 337.511,189.793 337.359,189.781 C337.097,189.761 336.836,189.745 336.575,189.742 C336.523,189.741 336.473,189.734 336.42,189.734 C336.31,189.734 336.203,189.747 336.094,189.75 C335.85,189.757 335.608,189.766 335.366,189.787 C335.173,189.803 334.983,189.828 334.793,189.853 C334.594,189.879 334.396,189.908 334.198,189.944 C333.979,189.983 333.763,190.031 333.549,190.082 C333.381,190.122 333.215,190.164 333.049,190.21 C332.823,190.274 332.601,190.345 332.381,190.421 C332.223,190.476 332.068,190.532 331.913,190.592 C331.7,190.675 331.492,190.764 331.286,190.858 C331.121,190.933 330.958,191.012 330.796,191.094 C330.613,191.188 330.433,191.285 330.255,191.387 C330.076,191.49 329.901,191.597 329.726,191.709 C329.574,191.807 329.425,191.907 329.278,192.012 C329.093,192.143 328.911,192.279 328.732,192.42 C328.602,192.523 328.475,192.629 328.349,192.737 C328.172,192.89 327.998,193.047 327.829,193.21 C327.706,193.329 327.586,193.452 327.468,193.576 C327.315,193.736 327.165,193.899 327.02,194.068 C326.89,194.22 326.766,194.377 326.643,194.535 C326.525,194.687 326.408,194.84 326.297,194.999 C326.157,195.197 326.027,195.402 325.899,195.608 C325.841,195.701 325.776,195.787 325.72,195.882 C325.694,195.927 325.675,195.974 325.649,196.019 C325.52,196.247 325.403,196.481 325.288,196.718 C325.222,196.854 325.152,196.989 325.091,197.127 C324.992,197.35 324.907,197.578 324.822,197.807 C324.762,197.969 324.698,198.129 324.645,198.292 C324.581,198.489 324.529,198.691 324.475,198.892 C324.42,199.093 324.363,199.293 324.32,199.496 C324.283,199.664 324.258,199.835 324.228,200.005 C324.187,200.245 324.145,200.485 324.118,200.726 C324.101,200.877 324.094,201.029 324.082,201.181 C324.063,201.443 324.046,201.704 324.043,201.965 C324.042,202.017 324.035,202.067 324.035,202.119 C324.035,202.23 324.048,202.337 324.052,202.446 C324.058,202.689 324.067,202.932 324.088,203.173 C324.104,203.366 324.129,203.557 324.154,203.747 C324.181,203.946 324.208,204.144 324.245,204.342 C324.285,204.561 324.332,204.776 324.383,204.991 C324.423,205.159 324.465,205.325 324.511,205.491 C324.575,205.717 324.646,205.939 324.722,206.159 C324.777,206.317 324.833,206.472 324.894,206.627 C324.977,206.839 325.065,207.048 325.159,207.254 C325.234,207.419 325.313,207.582 325.395,207.744 C325.489,207.927 325.586,208.107 325.689,208.285 C325.791,208.463 325.898,208.639 326.01,208.813 C326.108,208.965 326.208,209.115 326.313,209.262 C326.444,209.448 326.58,209.629 326.722,209.808 C326.824,209.938 326.93,210.065 327.038,210.19 C327.191,210.368 327.348,210.542 327.512,210.711 C327.63,210.834 327.752,210.953 327.876,211.071 C328.036,211.224 328.2,211.375 328.37,211.52 C328.521,211.65 328.677,211.773 328.835,211.896 C328.988,212.014 329.141,212.132 329.3,212.244 C329.498,212.383 329.702,212.512 329.908,212.64 C330.001,212.698 330.087,212.764 330.183,212.82 C330.228,212.846 330.276,212.865 330.321,212.891 C330.547,213.02 330.781,213.136 331.016,213.251 C331.154,213.318 331.29,213.388 331.429,213.45 C331.65,213.547 331.877,213.632 332.105,213.717 C332.268,213.777 332.43,213.842 332.594,213.896 C332.79,213.959 332.99,214.01 333.19,214.064 C333.392,214.119 333.594,214.177 333.798,214.221 C333.965,214.257 334.135,214.282 334.305,214.311 C334.545,214.353 334.786,214.395 335.027,214.422 C335.178,214.439 335.33,214.446 335.482,214.458 C335.744,214.477 336.005,214.494 336.266,214.497 C336.318,214.498 336.368,214.505 336.42,214.505 C336.531,214.505 336.638,214.491 336.747,214.488 C336.99,214.482 337.233,214.473 337.474,214.452 C337.668,214.435 337.858,214.411 338.048,214.386 C338.248,214.359 338.445,214.331 338.643,214.295 C338.862,214.255 339.078,214.208 339.292,214.157 C339.46,214.117 339.626,214.075 339.792,214.028 C340.018,213.964 340.24,213.894 340.461,213.817 C340.618,213.763 340.773,213.707 340.928,213.646 C341.14,213.563 341.349,213.475 341.555,213.38 C341.72,213.306 341.883,213.227 342.045,213.145 C342.228,213.051 342.408,212.954 342.586,212.851 C342.765,212.749 342.94,212.642 343.115,212.53 C343.267,212.432 343.416,212.331 343.563,212.227 C343.749,212.096 343.931,211.96 344.109,211.818 C344.239,211.715 344.366,211.61 344.491,211.502 C344.669,211.349 344.843,211.192 345.012,211.028 C345.135,210.91 345.254,210.788 345.373,210.664 C345.525,210.503 345.676,210.34 345.821,210.17 C345.951,210.018 346.074,209.862 346.197,209.705 C346.315,209.552 346.433,209.399 346.545,209.24 C346.684,209.042 346.814,208.838 346.941,208.632 C346.999,208.538 347.065,208.453 347.121,208.357 C347.147,208.312 347.167,208.264 347.192,208.219 C347.321,207.992 347.437,207.759 347.552,207.524 C347.619,207.386 347.689,207.25 347.751,207.111" id="Fill-4"></path>
        </g>
    </g>
</svg>