<?xml version="1.0" encoding="UTF-8"?>
<svg width="181px" height="181px" viewBox="0 0 181 181" version="1.1" xmlns="http://www.w3.org/2000/svg" xmlns:xlink="http://www.w3.org/1999/xlink">
    <title>Fill 6</title>
    <g id="Page-1" stroke="none" stroke-width="1" fill="none" fill-rule="evenodd">
        <g id="Bicicleta-Icon-Vector-03" transform="translate(-777.000000, -145.000000)" fill="#1C536B">
            <path d="M842.834,243.694 C845.272,250.953 850.808,256.775 857.882,259.598 C860.938,275.318 861.583,297.153 843.092,301.064 C823.671,293.834 808.334,278.236 801.442,258.652 C805.26,240.051 827.08,240.647 842.834,243.694 Z M843.127,169.719 C862.325,173.064 861.937,194.887 858.923,210.817 C851.638,213.368 845.845,219.051 843.141,226.262 C827.505,229.333 805.663,230.081 801.537,211.863 C808.48,192.399 823.782,176.909 843.127,169.719 Z M867.527,222.796 C874.488,222.796 880.13,228.438 880.13,235.398 C880.13,242.358 874.488,248 867.527,248 C860.567,248 854.925,242.358 854.925,235.398 C854.925,228.438 860.567,222.796 867.527,222.796 Z M891.928,169.719 C910.821,176.74 925.853,191.68 933.013,210.505 C930.34,230.527 908.518,230.418 892.352,227.461 C889.866,219.68 883.82,213.509 876.132,210.817 C873.118,194.887 872.73,173.064 891.928,169.719 Z M891.326,301.299 C871.855,298.168 872.158,276.332 875.158,260.322 C882.91,257.952 889.1,252.057 891.921,244.513 C907.918,241.518 929.72,241.222 932.873,260.647 C925.582,279.502 910.381,294.416 891.326,301.299 Z M783.554,247.345 L778.515,249.583 C778.89,251.921 779.362,254.225 779.913,256.5 L785.466,256.546 C792.309,256.602 795.353,265.169 790.081,269.531 L785.729,273.132 C786.716,275.255 787.782,277.332 788.926,279.362 L794.405,277.875 C801.009,276.084 806.252,283.511 802.352,289.134 L799.079,293.853 C800.591,295.614 802.15,297.332 803.791,298.972 L808.766,296.002 C814.642,292.495 821.695,298.233 819.457,304.7 L817.541,310.235 C819.456,311.513 821.427,312.71 823.442,313.841 L827.486,309.582 C832.198,304.62 840.537,308.242 840.127,315.073 L839.771,320.987 C841.947,321.691 844.161,322.308 846.406,322.847 L849.176,317.608 C852.374,311.559 861.381,312.797 862.829,319.485 L864.081,325.273 C865.227,325.316 866.372,325.36 867.527,325.36 C868.683,325.36 869.828,325.316 870.974,325.273 L872.226,319.485 C873.674,312.797 882.681,311.559 885.879,317.608 L888.649,322.847 C890.894,322.308 893.107,321.691 895.284,320.987 L894.928,315.073 C894.518,308.242 902.857,304.62 907.569,309.582 L911.613,313.841 C913.627,312.71 915.599,311.513 917.514,310.235 L915.598,304.7 C913.36,298.233 920.413,292.495 926.289,296.002 L931.264,298.972 C932.905,297.332 934.464,295.614 935.975,293.853 L932.703,289.134 C928.803,283.511 934.046,276.084 940.65,277.875 L946.129,279.362 C947.272,277.332 948.339,275.255 949.326,273.132 L944.974,269.531 C939.702,265.169 942.746,256.602 949.589,256.546 L955.141,256.5 C955.693,254.225 956.165,251.921 956.54,249.583 L951.501,247.345 C945.247,244.567 945.867,235.496 952.442,233.595 L957.619,232.098 C957.539,229.706 957.372,227.336 957.107,224.994 L951.8,224.22 C945.029,223.232 943.179,214.33 948.996,210.727 L953.495,207.939 C952.771,205.65 951.947,203.406 951.049,201.201 L945.849,201.872 C939.062,202.747 934.88,194.675 939.509,189.635 L942.986,185.849 C941.663,183.829 940.259,181.868 938.783,179.966 L934.09,181.958 C927.791,184.632 921.585,177.987 924.683,171.886 L926.958,167.406 C925.136,165.808 923.262,164.268 921.315,162.818 L917.393,165.955 C912.05,170.23 904.281,165.506 905.618,158.795 L906.593,153.9 C904.409,152.848 902.166,151.903 899.889,151.027 L896.999,155.051 C893.006,160.608 884.252,158.155 883.728,151.332 L883.352,146.433 C880.965,146.01 878.55,145.668 876.102,145.436 L874.418,150.053 C872.073,156.482 862.982,156.482 860.637,150.053 L858.953,145.436 C856.505,145.668 854.09,146.01 851.703,146.433 L851.327,151.332 C850.803,158.155 842.049,160.608 838.056,155.051 L835.166,151.027 C832.889,151.903 830.646,152.848 828.462,153.9 L829.437,158.795 C830.774,165.506 823.005,170.23 817.662,165.955 L813.74,162.818 C811.792,164.268 809.919,165.808 808.097,167.406 L810.372,171.886 C813.47,177.987 807.264,184.632 800.965,181.958 L796.272,179.966 C794.796,181.868 793.392,183.829 792.069,185.849 L795.546,189.635 C800.175,194.675 795.993,202.747 789.206,201.872 L784.006,201.201 C783.108,203.407 782.284,205.65 781.56,207.939 L786.059,210.727 C791.876,214.33 790.026,223.232 783.255,224.22 L777.948,224.994 C777.683,227.336 777.516,229.706 777.436,232.098 L782.613,233.595 C789.188,235.496 789.807,244.567 783.554,247.345 L783.554,247.345 Z" id="Fill-6"></path>
        </g>
    </g>
</svg>