<?xml version="1.0" encoding="UTF-8"?>
<svg width="288px" height="163px" viewBox="0 0 288 163" version="1.1" xmlns="http://www.w3.org/2000/svg" xmlns:xlink="http://www.w3.org/1999/xlink">
    <title>Fill 8</title>
    <g id="Page-1" stroke="none" stroke-width="1" fill="none" fill-rule="evenodd">
        <g id="Bicicleta-Icon-Vector-03" transform="translate(-149.000000, -386.000000)" fill="#1C536B">
            <path d="M253.107,443.378 L295.226,527.07 L181.023,515.316 L253.107,443.378 Z M403.806,407.799 L414.502,435.06 L315.187,522.859 L270.419,433.904 L403.806,407.799 Z M312.032,548.58 C312.068,548.58 312.103,548.587 312.139,548.587 C312.212,548.587 312.286,548.576 312.36,548.574 C312.616,548.568 312.871,548.556 313.125,548.53 C313.264,548.516 313.404,548.493 313.543,548.473 C313.748,548.443 313.95,548.409 314.152,548.367 C314.289,548.338 314.426,548.307 314.563,548.272 C314.796,548.213 315.026,548.143 315.254,548.067 C315.352,548.034 315.45,548.007 315.547,547.971 C315.874,547.85 316.193,547.712 316.506,547.557 C316.525,547.548 316.545,547.542 316.564,547.532 C316.648,547.49 316.725,547.439 316.807,547.394 C316.982,547.3 317.156,547.204 317.326,547.099 C317.451,547.022 317.571,546.938 317.692,546.856 C317.825,546.765 317.958,546.673 318.088,546.575 C318.222,546.473 318.35,546.367 318.479,546.26 C318.539,546.209 318.603,546.164 318.663,546.111 L432.733,445.267 C435.836,442.524 436.894,438.133 435.382,434.277 L419.162,392.94 C417.422,388.507 412.764,385.945 408.087,386.864 L261.212,415.609 L253.828,400.936 C251.381,396.072 245.452,394.112 240.586,396.561 C235.721,399.009 233.762,404.938 236.21,409.803 L243.773,424.83 L152.397,516.02 C149.702,518.709 148.795,522.71 150.069,526.297 C151.341,529.885 154.565,532.42 158.353,532.81 L311.121,548.533 C311.426,548.564 311.729,548.577 312.032,548.58 L312.032,548.58 Z" id="Fill-8"></path>
        </g>
    </g>
</svg>