<?xml version="1.0" encoding="UTF-8"?>
<svg width="216px" height="223px" viewBox="0 0 216 223" version="1.1" xmlns="http://www.w3.org/2000/svg" xmlns:xlink="http://www.w3.org/1999/xlink">
    <title>Fill 9</title>
    <g id="Page-1" stroke="none" stroke-width="1" fill="none" fill-rule="evenodd">
        <g id="Bicicleta-Icon-Vector-03" transform="translate(-519.000000, -365.000000)" fill="#1C536B">
            <path d="M562.867,413.335 L562.867,420.046 C562.867,429.572 570.616,437.322 580.142,437.322 L580.695,437.322 C590.221,437.322 597.971,429.572 597.971,420.046 L597.971,393.314 C597.971,392.261 597.802,391.248 597.496,390.297 C601.432,388.873 605.495,387.717 609.668,386.866 L609.668,406.201 C609.668,415.727 617.418,423.477 626.945,423.477 L627.497,423.477 C637.023,423.477 644.773,415.727 644.773,406.201 L644.773,386.865 C648.946,387.717 653.009,388.873 656.945,390.296 C656.639,391.248 656.47,392.261 656.47,393.314 L656.47,420.046 C656.47,429.572 664.219,437.322 673.746,437.322 L674.3,437.322 C683.826,437.322 691.575,429.572 691.575,420.046 L691.575,413.335 C700.376,422.865 707.095,434.342 710.995,447.045 L543.447,447.045 C547.347,434.342 554.066,422.865 562.867,413.335 Z M661.469,561.034 C660.859,557.812 658.032,555.373 654.633,555.373 L599.807,555.373 C596.408,555.373 593.582,557.812 592.972,561.034 C566.553,548.308 546.347,523.173 539.62,494.627 L714.822,494.627 C708.094,523.173 687.888,548.309 661.469,561.034 Z M606.769,573.625 L606.769,572.772 C606.94,571.884 606.934,570.994 606.769,570.141 L606.769,569.295 L647.672,569.295 L647.672,570.141 C647.507,570.994 647.501,571.884 647.672,572.772 L647.672,573.625 L606.769,573.625 Z M714.84,472.716 C714.84,473.443 714.83,474.172 714.81,474.904 L539.632,474.904 C539.612,474.172 539.602,473.443 539.602,472.716 C539.602,470.715 539.694,468.736 539.827,466.768 L714.615,466.768 C714.748,468.736 714.84,470.715 714.84,472.716 Z M592.846,576.19 L592.846,580.586 C592.846,584.43 595.963,587.547 599.807,587.547 L654.633,587.547 C658.478,587.547 661.594,584.43 661.594,580.586 L661.594,576.19 C696.118,562.066 722.522,529.625 729.39,492.968 C731.711,491.422 733.357,488.92 733.721,485.972 C734.279,481.439 734.563,476.979 734.563,472.716 C734.563,413.527 686.409,365.374 627.221,365.374 C574.098,365.374 529.872,404.167 521.364,454.91 C521.36,454.932 521.357,454.955 521.353,454.977 C520.389,460.75 519.879,466.674 519.879,472.716 C519.879,476.985 520.163,481.445 520.72,485.972 C521.084,488.92 522.73,491.423 525.052,492.969 C531.921,529.625 558.323,562.066 592.846,576.19 L592.846,576.19 Z" id="Fill-9"></path>
        </g>
    </g>
</svg>