<?xml version="1.0" encoding="UTF-8"?>
<svg width="179px" height="138px" viewBox="0 0 179 138" version="1.1" xmlns="http://www.w3.org/2000/svg" xmlns:xlink="http://www.w3.org/1999/xlink">
    <title>Page 1</title>
    <g id="Page-1" stroke="none" stroke-width="1" fill="none" fill-rule="evenodd">
        <g id="Bicicleta-Icon-Vector-03" transform="translate(-1031.000000, -403.000000)" fill="#1C536B">
            <path d="M1058.17,423.477 L1061.03,423.477 L1061.03,475.988 L1051.72,475.988 L1051.72,429.935 C1051.72,426.374 1054.61,423.477 1058.17,423.477 Z M1098.19,429.935 L1098.19,475.988 L1088.87,475.988 L1088.87,423.477 L1091.73,423.477 C1095.29,423.477 1098.19,426.374 1098.19,429.935 Z M1061.03,495.711 L1061.03,508.801 C1061.03,516.49 1067.26,522.723 1074.95,522.723 C1082.64,522.723 1088.87,516.49 1088.87,508.801 L1088.87,495.711 L1098.19,495.711 L1098.19,495.755 C1098.19,501.201 1102.6,505.616 1108.05,505.616 C1113.5,505.616 1117.91,501.201 1117.91,495.755 L1117.91,429.935 C1117.91,415.498 1106.17,403.754 1091.73,403.754 L1078.61,403.754 C1077.44,403.437 1076.22,403.253 1074.95,403.253 C1073.68,403.253 1072.46,403.437 1071.3,403.754 L1058.17,403.754 C1043.74,403.754 1031.99,415.498 1031.99,429.935 L1031.99,495.755 C1031.99,501.201 1036.41,505.616 1041.85,505.616 C1047.3,505.616 1051.72,501.201 1051.72,495.755 L1051.72,495.711 L1061.03,495.711 L1061.03,495.711 Z" id="Fill-11"></path>
            <path d="M1189.64,448.054 L1189.64,494.108 L1180.33,494.108 L1180.33,441.596 L1183.19,441.596 C1186.75,441.596 1189.64,444.493 1189.64,448.054 Z M1143.17,494.108 L1143.17,448.054 C1143.17,444.493 1146.07,441.596 1149.63,441.596 L1152.49,441.596 L1152.49,494.108 L1143.17,494.108 Z M1162.75,421.873 L1149.63,421.873 C1135.19,421.873 1123.45,433.617 1123.45,448.054 L1123.45,513.874 C1123.45,519.32 1127.86,523.736 1133.31,523.736 C1138.76,523.736 1143.17,519.32 1143.17,513.874 L1143.17,513.831 L1152.49,513.831 L1152.49,526.92 C1152.49,534.609 1158.72,540.842 1166.41,540.842 C1174.1,540.842 1180.33,534.609 1180.33,526.92 L1180.33,513.831 L1189.64,513.831 L1189.64,513.874 C1189.64,519.32 1194.06,523.736 1199.51,523.736 C1204.95,523.736 1209.37,519.32 1209.37,513.874 L1209.37,448.054 C1209.37,433.617 1197.62,421.873 1183.19,421.873 L1170.07,421.873 C1168.9,421.555 1167.68,421.371 1166.41,421.371 C1165.14,421.371 1163.92,421.555 1162.75,421.873 L1162.75,421.873 Z" id="Fill-12"></path>
        </g>
    </g>
</svg>