<?xml version="1.0" encoding="UTF-8"?>
<svg width="185px" height="138px" viewBox="0 0 185 138" version="1.1" xmlns="http://www.w3.org/2000/svg" xmlns:xlink="http://www.w3.org/1999/xlink">
    <title>Fill 10</title>
    <g id="Page-1" stroke="none" stroke-width="1" fill="none" fill-rule="evenodd">
        <g id="Bicicleta-Icon-Vector-03" transform="translate(-775.000000, -430.000000)" fill="#1C536B">
            <path d="M932.385,450.973 C920.933,450.986 909.581,451.304 898.13,450.659 C875.204,449.368 852.49,445.376 830.375,439.26 C815.801,435.229 794.743,422.755 781.5,435.796 C770.816,446.319 775.358,462.902 783.159,473.356 C784.162,474.701 785.257,475.979 786.41,477.212 C792.223,485.817 800.433,492.504 810.453,496.672 C818.527,500.03 827.4,500.803 836.434,500.358 L858.1,564.232 C858.928,566.674 862.071,567.815 865.118,566.781 L876.905,562.783 C879.953,561.75 881.752,558.932 880.924,556.49 L860.803,497.176 C865.152,496.414 869.402,495.653 873.472,495.057 C896.64,491.664 919.847,488.466 942.982,484.858 C948.77,483.956 955.655,481.71 958.398,476.021 C961.663,469.245 959.06,462.284 954.041,457.165 C948.546,451.56 939.729,450.965 932.385,450.973" id="Fill-10"></path>
        </g>
    </g>
</svg>