<?xml version="1.0" encoding="UTF-8"?>
<svg width="240px" height="207px" viewBox="0 0 240 207" version="1.1" xmlns="http://www.w3.org/2000/svg" xmlns:xlink="http://www.w3.org/1999/xlink">
    <title>Fill 14</title>
    <g id="Page-1" stroke="none" stroke-width="1" fill="none" fill-rule="evenodd">
        <g id="Bicicleta-Icon-Vector-03" transform="translate(-529.000000, -644.000000)" fill="#1C536B">
            <path d="M726.712,769.425 C725.03,767.744 722.607,767.039 720.281,767.557 L697.164,772.707 C694.737,773.247 692.783,775.042 692.037,777.414 L684.938,800.007 C684.16,802.484 684.824,805.187 686.661,807.021 L716.602,836.902 C715.951,836.934 715.3,836.95 714.651,836.95 C696.097,836.95 679.697,823.781 675.657,805.64 C670.863,784.115 684.476,762.701 706.001,757.908 C708.88,757.267 711.82,756.941 714.739,756.941 C733.294,756.941 749.692,770.109 753.733,788.252 C754.401,791.254 754.719,794.306 754.69,797.349 L726.712,769.425 Z M615.506,741.338 C620.579,737.502 624.984,732.758 628.498,727.23 C630.929,723.405 632.844,719.354 634.232,715.161 L681.269,754.649 C672.648,761.485 666.317,770.829 663.12,781.313 L615.506,741.338 Z M591.692,737.342 C588.812,737.983 585.872,738.308 582.953,738.308 C564.4,738.308 548.001,725.141 543.959,707 C543.291,703.998 542.974,700.945 543.002,697.903 L570.981,725.825 C572.665,727.505 575.087,728.212 577.412,727.692 L600.528,722.544 C602.955,722.004 604.909,720.209 605.655,717.837 L612.754,695.243 C613.532,692.766 612.868,690.063 611.031,688.229 L581.091,658.349 C581.741,658.316 582.391,658.3 583.041,658.3 C601.596,658.3 617.995,671.468 622.035,689.611 C622.92,693.58 623.191,697.59 622.877,701.532 C622.87,701.589 622.865,701.646 622.86,701.703 C622.326,708.055 620.267,714.227 616.749,719.76 C611.018,728.777 602.12,735.019 591.692,737.342 Z M714.739,743.019 C710.804,743.019 706.845,743.457 702.974,744.319 C699.854,745.014 696.866,745.982 694.01,747.167 L636.916,699.233 C636.98,695.031 636.561,690.791 635.624,686.585 C630.179,662.128 608.065,644.378 583.041,644.378 C579.107,644.378 575.148,644.815 571.275,645.677 C569.103,646.162 566.882,646.813 564.674,647.609 C562.432,648.418 560.759,650.317 560.242,652.644 C559.724,654.97 560.432,657.4 562.119,659.084 L598.207,695.099 L593.578,709.829 L578.112,713.273 L543.35,678.58 C541.644,676.876 539.175,676.177 536.83,676.733 C534.482,677.29 532.59,679.02 531.829,681.308 C528.749,690.552 528.245,700.483 530.371,710.026 C535.817,734.48 557.931,752.23 582.953,752.23 C582.954,752.23 582.954,752.23 582.954,752.23 C586.889,752.23 590.848,751.793 594.718,750.931 C597.386,750.337 599.979,749.55 602.484,748.586 L660.782,797.53 C660.823,801.209 661.237,804.936 662.068,808.666 C667.514,833.122 689.629,850.872 714.651,850.872 C714.652,850.872 714.652,850.872 714.652,850.872 C718.586,850.872 722.545,850.435 726.415,849.573 C728.576,849.091 730.797,848.443 733.015,847.644 C735.258,846.835 736.932,844.936 737.451,842.609 C737.969,840.282 737.261,837.852 735.573,836.167 L699.486,800.151 L704.114,785.422 L719.581,781.977 L754.342,816.671 C756.048,818.374 758.517,819.073 760.863,818.518 C763.209,817.962 765.101,816.231 765.863,813.944 C768.944,804.699 769.448,794.767 767.322,785.226 C761.876,760.77 739.762,743.019 714.739,743.019 L714.739,743.019 Z" id="Fill-14"></path>
        </g>
    </g>
</svg>