<?xml version="1.0" encoding="UTF-8"?>
<svg width="220px" height="220px" viewBox="0 0 220 220" version="1.1" xmlns="http://www.w3.org/2000/svg" xmlns:xlink="http://www.w3.org/1999/xlink">
    <title>Fill 5</title>
    <g id="Page-1" stroke="none" stroke-width="1" fill="none" fill-rule="evenodd">
        <g id="Bicicleta-Icon-Vector-03" transform="translate(-517.000000, -126.000000)" fill="#1C536B">
            <path d="M560.717,165.831 L598.24,210.337 L541.621,190.936 C546.593,181.547 553.066,173.077 560.717,165.831 Z M629.873,139.341 L624.933,197.388 L598.597,143.595 C607.647,140.789 617.26,139.273 627.221,139.273 C628.11,139.273 628.989,139.317 629.873,139.341 Z M697.471,169.577 L652.963,207.103 L672.365,150.481 C681.755,155.453 690.225,161.927 697.471,169.577 Z M693.724,306.332 L656.2,261.825 L712.821,281.227 C707.848,290.616 701.375,299.086 693.724,306.332 Z M624.569,332.822 L629.509,274.776 L655.845,328.568 C646.795,331.374 637.182,332.889 627.221,332.889 C626.332,332.889 625.453,332.846 624.569,332.822 Z M556.971,302.585 L601.478,265.06 L582.075,321.681 C572.686,316.709 564.217,310.236 556.971,302.585 Z M597.517,239.135 L609.998,240.197 L604.403,256.524 L553.859,299.139 C546.3,290.358 540.271,280.226 536.231,269.139 L597.517,239.135 Z M612.131,226.813 L596.629,234.402 L530.715,228.791 C531.611,216.838 534.673,205.485 539.531,195.126 L604.057,217.236 L612.131,226.813 Z M620.313,222.807 L616.428,224.709 L612.594,220.162 L620.313,222.807 Z M623.105,218.858 L606.777,213.263 L564.163,162.719 C572.944,155.161 583.076,149.132 594.164,145.091 L624.167,206.377 L623.105,218.858 Z M631.723,221.811 L627.632,220.408 L628.136,214.483 L631.723,221.811 Z M636.489,220.993 L628.901,205.493 L634.511,139.576 C646.464,140.471 657.818,143.534 668.177,148.392 L646.065,212.919 L636.489,220.993 Z M640.495,229.175 L638.593,225.29 L643.14,221.455 L640.495,229.175 Z M656.924,233.028 L644.443,231.966 L650.038,215.64 L700.583,173.023 C708.142,181.804 714.17,191.936 718.211,203.023 L656.924,233.028 Z M642.31,245.351 L657.813,237.761 L723.726,243.372 C722.831,255.324 719.769,266.678 714.911,277.037 L650.384,254.926 L642.31,245.351 Z M634.128,249.356 L638.013,247.454 L641.847,252.001 L634.128,249.356 Z M631.336,253.306 L647.664,258.9 L690.278,309.444 C681.497,317.002 671.366,323.031 660.278,327.071 L630.274,265.787 L631.336,253.306 Z M622.718,250.352 L626.81,251.755 L626.306,257.682 L622.718,250.352 Z M617.952,251.17 L625.541,266.671 L619.931,332.587 C607.977,331.691 596.624,328.629 586.264,323.771 L608.375,259.245 L617.952,251.17 Z M613.946,242.987 L615.849,246.874 L611.3,250.709 L613.946,242.987 Z M611.548,235.672 L605.621,235.167 L612.95,231.579 L611.548,235.672 Z M642.893,236.491 L648.82,236.996 L641.49,240.584 L642.893,236.491 Z M616.904,236.081 C616.904,230.392 621.532,225.764 627.221,225.764 C632.91,225.764 637.538,230.392 637.538,236.081 C637.538,241.77 632.91,246.399 627.221,246.399 C621.532,246.399 616.904,241.77 616.904,236.081 Z M724.029,236.081 C724.029,236.971 723.986,237.85 723.962,238.734 L665.916,233.794 L719.708,207.458 C722.514,216.508 724.029,226.121 724.029,236.081 Z M530.413,236.081 C530.413,235.192 530.456,234.312 530.48,233.429 L588.525,238.369 L534.734,264.704 C531.928,255.654 530.413,246.041 530.413,236.081 Z M627.221,345.651 C687.638,345.651 736.791,296.498 736.791,236.081 C736.791,175.664 687.638,126.511 627.221,126.511 C566.804,126.511 517.651,175.664 517.651,236.081 C517.651,296.498 566.804,345.651 627.221,345.651 L627.221,345.651 Z" id="Fill-5"></path>
        </g>
    </g>
</svg>